<svg xmlns="http://www.w3.org/2000/svg" width="32" height="32" fill="none"><path fill="#fffaed" d="M0 0h32v32H0z"/><path fill="#000" d="M16 21.485a4.6 4.6 0 0 0 2.85-.95 5.4 5.4 0 0 0 1.816-2.45h-9.333q.567 1.5 1.816 2.45 1.251.95 2.85.95m-3.334-5.334q.834 0 1.417-.583t.583-1.417q0-.825-.583-1.412a1.92 1.92 0 0 0-1.417-.588q-.833 0-1.417.588a1.93 1.93 0 0 0-.583 1.412q0 .834.583 1.417.585.583 1.417.583m6.667 0q.833 0 1.417-.583.583-.583.583-1.417 0-.825-.583-1.412a1.92 1.92 0 0 0-1.417-.588q-.834 0-1.417.588a1.93 1.93 0 0 0-.583 1.412q0 .834.583 1.417t1.417.583m-9.214-7.663 3.902-5.073a2.5 2.5 0 0 1 .9-.74 2.46 2.46 0 0 1 2.159 0q.515.25.898.74l3.905 5.073 5.928 1.994q.816.285 1.268.961t.453 1.486q0 .368-.108.746a2.4 2.4 0 0 1-.35.722l-3.791 5.43.133 5.762q0 1.091-.756 1.846-.755.756-1.794.756-.051 0-.633-.092l-6.234-1.733-6.226 1.73q-.181.063-.365.083t-.34.02q-1.045 0-1.782-.765t-.695-1.878l.133-5.763-3.8-5.43a2.3 2.3 0 0 1-.353-.726 2.8 2.8 0 0 1-.104-.75q0-.814.45-1.476.45-.661 1.279-.929zm1.37 1.958-6.88 2.31 4.435 6.386-.174 6.813L16 23.979l7.137 2.001-.175-6.839 4.428-6.319-6.88-2.376-4.503-5.861z"/></svg>